<svg fill="none" xmlns="http://www.w3.org/2000/svg" viewBox="0 0 68 68"><rect width="68" height="68" rx="12" fill="#D8E4FF"/><g clip-path="url(#equity__a)" fill="#4678DF"><path d="M36.256 22a.643.643 0 0 0-.643.643v9.053a.643.643 0 0 0 .643.646h9.098a.644.644 0 0 0 .646-.646C46 26.373 41.582 22 36.256 22Z"/><path d="M43.218 34.192h-8.64a.818.818 0 0 1-.818-.818V24.64a.732.732 0 0 0-.72-.734 10.99 10.99 0 0 0-7.826 3.25c-.332.311-.64.648-.92 1.007A11.04 11.04 0 0 0 22 34.915v.319a1.898 1.898 0 0 0 .014.346 11.174 11.174 0 0 0 .058.672c0 .03 0 .062.012.09l.029.197c0 .046 0 .092.021.14l.015.093a11.082 11.082 0 0 0 5.186 7.62c.087.052.179.096.274.132A10.8 10.8 0 0 0 33.04 46a11.081 11.081 0 0 0 11.014-11.073.758.758 0 0 0-.836-.735Z"/></g><defs><clipPath id="equity__a"><path fill="#fff" transform="translate(22 22)" d="M0 0h24v24H0z"/></clipPath></defs></svg>