<svg fill="none" xmlns="http://www.w3.org/2000/svg" viewBox="0 0 68 68"><rect width="68" height="68" rx="12" fill="#D8E4FF"/><g clip-path="url(#government-savings__a)" fill="#4678DF"><path d="m41.022 25.014-6.607-2.534c-.268-.1-.563-.1-.83 0l-6.608 2.534a1.159 1.159 0 0 0-.741 1.08 1.157 1.157 0 0 0 1.157 1.16h13.214a1.156 1.156 0 0 0 1.157-1.16 1.158 1.158 0 0 0-.742-1.08ZM22.706 41.277h2.824a.706.706 0 0 0 .706-.706v-9.883a.705.705 0 0 0-.706-.706h-2.824a.706.706 0 0 0-.706.706v9.883a.705.705 0 0 0 .706.706Zm1.41-8.477a.705.705 0 0 1 .706.72.706.706 0 0 1-.705.708.72.72 0 0 1-.706-.708.706.706 0 0 1 .706-.72Zm0 2.825a.706.706 0 0 1 .706.705.705.705 0 0 1-.705.706.706.706 0 0 1-.706-.706.706.706 0 0 1 .706-.7v-.005Zm0 2.822a.706.706 0 0 1 .706.706.706.706 0 0 1-.705.72.72.72 0 0 1-.706-.72.706.706 0 0 1 .706-.701v-.005Zm-1.41 4.241h2.824a.705.705 0 0 1 .706.706V44.9a.705.705 0 0 1-.706.705h-2.824A.705.705 0 0 1 22 44.9v-1.507a.705.705 0 0 1 .706-.706Zm20.261-7.812A3.6 3.6 0 0 1 46 36.556v-5.868a.706.706 0 0 0-.705-.706H42.47a.706.706 0 0 0-.706.706v4.188h1.203Zm.916-2.076a.708.708 0 1 1 .005 1.417.708.708 0 0 1-.005-1.417Zm-12.144 3.958a.72.72 0 1 1 .074-.123 3.6 3.6 0 0 1 3.09-1.759h5.45v-5.505a.706.706 0 0 0-.706-.706H28.353a.706.706 0 0 0-.706.706V44.9a.706.706 0 0 0 .706.706h1.41a.706.706 0 0 0 .706-.706v-5.743a.72.72 0 0 1 .72-.706h.128a3.6 3.6 0 0 1 .422-1.694Zm5.083-6.775a.705.705 0 1 1 0 1.41.705.705 0 0 1 0-1.41Zm0 2.822a.708.708 0 1 1-.655.441.708.708 0 0 1 .655-.446v.005ZM34 29.983a.706.706 0 0 1 0 1.41.706.706 0 1 1 0-1.41Zm0 2.817a.709.709 0 0 1 0 1.414.708.708 0 0 1 0-1.414Zm-2.823-2.817a.706.706 0 1 1-.03 1.412.706.706 0 0 1 .03-1.412Zm0 2.822a.708.708 0 1 1-.666.43.706.706 0 0 1 .666-.435v.005Z"/><path d="M45.537 38.32a.358.358 0 0 1 0-.053c0-.08-.022-.156-.036-.24v-.038c-.015-.07-.034-.14-.053-.21v-.035a2.075 2.075 0 0 0-.08-.216l-.019-.048a2.435 2.435 0 0 0-.22-.408l-.034-.05a4.183 4.183 0 0 0-.125-.164l-.017-.024c-.05-.057-.1-.115-.156-.17l-.07-.024a1.823 1.823 0 0 0-.143-.13l-.024-.03c-.06-.05-.12-.097-.185-.14l-.055-.027a2.392 2.392 0 0 0-.168-.1l-.043-.027c-.07-.036-.14-.07-.212-.1l-.038-.017-.19-.07-.052-.017c-.077-.021-.154-.043-.24-.06h-.017a2.168 2.168 0 0 0-.219-.033h-8.404c-.35.037-.69.142-.999.31h-.014a2.63 2.63 0 0 0-.571.422l-.039.036-.031.036a2.695 2.695 0 0 0-.437.588 2.712 2.712 0 0 0-.326 1.296v4.267c-.002.362.071.72.213 1.053.064.162.145.316.24.461a2.71 2.71 0 0 0 2.247 1.196h7.819a2.712 2.712 0 0 0 2.71-2.71v-4.267a3.31 3.31 0 0 0-.012-.257Zm-.816 4.514a1.882 1.882 0 0 1-1.882 1.882h-7.81a1.943 1.943 0 0 1-.898-.226 1.924 1.924 0 0 1-.758-.758 1.887 1.887 0 0 1-.225-.898v-4.257c0-.314.077-.622.225-.898a1.918 1.918 0 0 1 .924-.838 1.935 1.935 0 0 1 .732-.146h8.026l.146.024h.02l.16.04.041.015.127.046h.03c.05.022.098.045.143.07l.034.019c.038.021.077.043.113.067l.03.022c.046.03.087.062.128.096l.026.019c.034.029.065.06.096.09l.032.03c.036.038.072.077.105.117l.015.017a1.964 1.964 0 0 1 .28.475l.022.06c.017.048.034.094.046.142.012.048.014.048.019.072.012.049.022.099.029.149v.065c0 .072.014.146.014.22l.01 4.284Z"/><path d="M43.998 39.134h-.204c-.045 0-.09 0-.136-.022h-.027c-.05 0-.1-.024-.15-.038l-.054-.034c-.04-.012-.079-.029-.12-.043l-.03-.014a1.465 1.465 0 0 1-.14-.065l-.036-.022a.977.977 0 0 1-.106-.065l-.033-.021a1.182 1.182 0 0 1-.123-.091l-.026-.022a4.27 4.27 0 0 1-.094-.086l-.029-.03a2.344 2.344 0 0 1-.105-.112v-.02c-.029-.033-.055-.071-.082-.107l-.024-.036a1.807 1.807 0 0 1-.168-.317l-.021-.06a2.362 2.362 0 0 1-.046-.14c-.014-.047 0-.045-.017-.069a1.31 1.31 0 0 1-.028-.144v-.065a2.114 2.114 0 0 1 0-.213h-6.495a1.821 1.821 0 0 1-.816 1.531 1.833 1.833 0 0 1-1.008.307v3.151a1.83 1.83 0 0 1 1.824 1.841h6.456a1.833 1.833 0 0 1 1.834-1.833v-3.17l.005.009Zm-4.684 4.284h-.03c-.03 0-.062 0-.093.014a2.52 2.52 0 0 1-1.718-.454l-.014-.011a2.917 2.917 0 0 1-.185-.147l-.063-.057c-.045-.044-.093-.087-.136-.135a2.796 2.796 0 0 1-.752-1.92 2.678 2.678 0 0 1 2.611-2.738h.354c.053 0 .106.014.156.026l.101.024.14.039.102.033c.044.017.087.032.128.05l.1.046c.041.017.08.039.12.06l.044.024.053.029.112.072.03.022.062.04.105.084.053.044.031.026c.036.031.067.065.1.096a.625.625 0 0 1 .073.072 2.794 2.794 0 0 1 .204.25c.031.043.062.084.091.13.029.045.04.066.06.1.02.034.046.074.065.113l.055.11c.017.039.036.075.053.115.005.014.01.028.017.041l.029.077c.014.038.028.08.04.118l.036.124c0 .041.022.082.031.125a2.775 2.775 0 0 1 .067.66 2.698 2.698 0 0 1-2.231 2.698Z"/><path d="M40.339 39.52H40a.973.973 0 0 0-.415-.286 1.177 1.177 0 0 0-.413-.071h-.927a.17.17 0 0 0-.17.17v.187H37.9a.066.066 0 0 0-.048.018.064.064 0 0 0-.02.047v.34a.067.067 0 0 0 .068.068h.18v.149h-.176a.067.067 0 0 0-.067.067v.34a.063.063 0 0 0 .02.047.063.063 0 0 0 .047.019h.175v1.473a.17.17 0 0 0 .17.17h.24a.17.17 0 0 0 .171-.17v-.96h.507c.14.001.28-.023.413-.072a.972.972 0 0 0 .333-.199.99.99 0 0 0 .187-.24h.24a.065.065 0 0 0 .048-.018.064.064 0 0 0 .02-.047v-.343a.067.067 0 0 0-.068-.067h-.12a.994.994 0 0 0 0-.147h.13a.067.067 0 0 0 .067-.067v-.343a.066.066 0 0 0-.024-.052.066.066 0 0 0-.055-.013Zm-.819.917a.432.432 0 0 1-.345.132h-.516v-.852h.514a.53.53 0 0 1 .203.034.44.44 0 0 1 .145.093.381.381 0 0 1 .086.135.464.464 0 0 1 .029.16.425.425 0 0 1-.116.298Z"/></g><defs><clipPath id="government-savings__a"><path fill="#fff" transform="translate(22 22)" d="M0 0h24v24H0z"/></clipPath></defs></svg>