<svg fill="none" xmlns="http://www.w3.org/2000/svg" viewBox="0 0 68 68"><rect width="68" height="68" rx="12" fill="#D8E4FF"/><path d="m45.35 32.438-9.793-9.793a2.208 2.208 0 0 0-3.12 0l-9.792 9.786a2.21 2.21 0 0 0 0 3.12 2.18 2.18 0 0 0 1.464.644h.458v7.202A2.59 2.59 0 0 0 27.15 46h3.841a.705.705 0 0 0 .703-.703V39.65a1.178 1.178 0 0 1 1.179-1.181h2.261a1.18 1.18 0 0 1 1.179 1.18v5.649a.703.703 0 0 0 .694.703h3.84a2.59 2.59 0 0 0 2.578-2.585v-7.201h.36a2.21 2.21 0 0 0 1.566-3.777Z" fill="#4678DF"/></svg>