<svg fill="none" xmlns="http://www.w3.org/2000/svg" viewBox="0 0 68 68"><rect width="68" height="68" rx="12" fill="#F9F9F9"/><g clip-path="url(#consumer-debt__a)" fill="#9898AD"><path d="M34.759 23.774h.879a2.08 2.08 0 0 0 1.72-.925l.282-.44A.907.907 0 0 0 36.89 21h-.672a1.51 1.51 0 0 0-.729.187 1.513 1.513 0 0 1-1.458 0 1.526 1.526 0 0 0-.736-.187h-.673a.908.908 0 0 0-.757 1.41l.291.439a2.062 2.062 0 0 0 1.719.925h.884Zm.967 4.693a.754.754 0 0 0-.26-.171.977.977 0 0 0-.377-.065h-.97v1.588h.96a.827.827 0 0 0 .645-.239.832.832 0 0 0 .164-.855.676.676 0 0 0-.162-.258Z"/><path d="M39.98 30.388a9.547 9.547 0 0 0-.678-2.815 8.61 8.61 0 0 0-.622-1.204c-.832-1.337-2.314-1.963-3.9-1.963-1.653 0-3.206.686-4.045 2.111-.198.34-.372.692-.52 1.056a9.639 9.639 0 0 0-.682 2.815l-.286 3.222a2.152 2.152 0 0 0 2.153 2.153h6.716a2.153 2.153 0 0 0 2.15-2.153l-.286-3.222Zm-2.6-1.768a.125.125 0 0 1-.125.125h-.241c.012.091.018.184.018.276h.223a.127.127 0 0 1 .125.125v.634a.127.127 0 0 1-.125.125h-.452c-.09.162-.207.31-.346.434a1.885 1.885 0 0 1-.624.374c-.25.093-.514.14-.78.136h-.933v1.801a.32.32 0 0 1-.32.31h-.452a.318.318 0 0 1-.318-.317v-2.736h-.33a.125.125 0 0 1-.122-.124v-.635a.125.125 0 0 1 .122-.125h.328v-.278H32.7a.122.122 0 0 1-.122-.125v-.634a.122.122 0 0 1 .122-.122h.328v-.349a.32.32 0 0 1 .32-.317h1.71c.266-.003.53.042.78.133.23.083.443.21.624.374.055.05.105.102.151.159h.645a.125.125 0 0 1 .125.122l-.003.634Zm6.736 7.764a1.838 1.838 0 0 0-2.457.291l-2.34 2.959-.028.031a6.243 6.243 0 0 0-.825 1.3 3.567 3.567 0 0 1-3.187 1.976h-4.16a1.162 1.162 0 0 1-1.173-1.02 1.13 1.13 0 0 1 1.123-1.24h4.267a1.26 1.26 0 0 0 1.245-1.3 1.25 1.25 0 0 1 .019-.181 1.836 1.836 0 0 0-1.774-1.36h-5.6a5.114 5.114 0 0 0-3.346 1.243l-2.127 1.968a1.833 1.833 0 0 0-.343 2.384l1.763 2.733a1.835 1.835 0 0 0 2.665.447l.647-.572a3.01 3.01 0 0 1 1.849-.632h8.06a3.64 3.64 0 0 0 2.961-1.531l3.188-4.94a1.835 1.835 0 0 0-.427-2.556Z"/></g><defs><clipPath id="consumer-debt__a"><path fill="#fff" transform="translate(21 21)" d="M0 0h26v26H0z"/></clipPath></defs></svg>